<?xml version="1.0" standalone="no"?>
<!DOCTYPE svg PUBLIC "-//W3C//DTD SVG 20010904//EN"
 "http://www.w3.org/TR/2001/REC-SVG-20010904/DTD/svg10.dtd">
<svg version="1.0" xmlns="http://www.w3.org/2000/svg"
 width="612.000000pt" height="792.000000pt" viewBox="0 0 612.000000 792.000000"
 preserveAspectRatio="xMidYMid meet">
<metadata>
Created by potrace 1.16, written by Peter Selinger 2001-2019
</metadata>
<g transform="translate(0.000000,792.000000) scale(0.100000,-0.100000)"
fill="#000000" stroke="none">
<path d="M2810 6519 c-345 -23 -634 -88 -960 -216 -345 -135 -568 -299 -789
-578 -120 -151 -323 -473 -397 -630 -199 -422 -288 -987 -233 -1470 18 -159
59 -315 141 -540 171 -470 270 -641 512 -880 361 -357 559 -514 794 -627 270
-130 688 -222 911 -199 53 5 204 13 336 16 464 12 572 38 875 212 58 33 197
105 310 161 289 142 443 247 672 454 156 142 224 235 332 450 110 220 181 424
225 646 45 225 54 340 48 619 -5 272 -26 432 -87 660 -133 499 -410 961 -758
1267 -415 364 -825 591 -1171 650 -105 18 -529 20 -761 5z m495 -134 c465 -62
859 -226 1172 -489 108 -91 400 -386 475 -481 236 -298 394 -666 455 -1065 22
-147 26 -751 5 -895 -49 -341 -109 -463 -371 -755 -62 -69 -139 -163 -171
-210 -145 -209 -282 -350 -446 -456 -132 -87 -601 -315 -753 -368 -290 -101
-676 -132 -951 -76 -127 25 -669 206 -796 265 -124 57 -168 89 -346 247 -341
302 -534 531 -642 760 -192 405 -288 792 -290 1163 0 173 9 227 85 483 28 92
61 221 75 287 74 351 216 640 423 858 213 224 414 352 826 527 300 128 391
158 605 199 58 11 116 22 130 25 49 9 397 -3 515 -19z"/>
<path d="M2793 6275 c-528 -67 -1052 -319 -1353 -650 -227 -251 -339 -436
-488 -806 -64 -158 -76 -198 -116 -400 -56 -274 -69 -386 -63 -520 5 -132 27
-254 73 -410 20 -68 51 -181 70 -251 37 -144 72 -226 138 -328 58 -89 192
-229 316 -328 52 -42 165 -144 250 -227 175 -169 245 -219 438 -317 313 -157
620 -252 942 -289 188 -21 342 -2 560 72 122 41 618 251 690 292 68 39 589
543 688 665 38 48 104 137 146 199 177 258 194 347 198 1023 3 351 1 404 -15
473 -45 196 -189 520 -283 637 -32 41 -88 118 -124 171 -80 120 -255 325 -347
407 -182 164 -273 229 -402 287 -160 73 -657 280 -708 295 -61 19 -477 22
-610 5z m-329 -690 c202 -43 227 -182 75 -406 -100 -147 -221 -233 -328 -231
-72 1 -70 5 -77 -168 -3 -69 -10 -137 -16 -152 -12 -32 -60 -49 -141 -52 -91
-2 -110 60 -78 244 36 200 60 362 69 465 8 92 7 102 -11 127 -17 23 -18 32 -9
52 26 57 247 129 412 135 19 0 66 -6 104 -14z m386 -102 c32 -41 23 -107 -19
-145 -76 -68 -168 3 -140 107 19 66 118 90 159 38z m1371 -229 c87 -25 145
-68 165 -121 17 -44 17 -49 -4 -152 -12 -58 -22 -129 -22 -157 0 -27 -6 -57
-12 -66 -18 -23 -67 -29 -108 -15 -30 11 -42 10 -84 -6 -80 -30 -141 -38 -196
-26 -90 19 -141 73 -126 134 18 73 143 146 334 195 37 9 42 14 42 38 0 16 -6
36 -13 46 -18 25 -48 14 -97 -35 -34 -35 -44 -39 -87 -39 -49 0 -94 16 -100
36 -5 15 68 106 108 134 36 26 94 49 125 50 11 0 45 -7 75 -16z m-411 -32 c21
-10 39 -28 44 -44 13 -36 -4 -54 -199 -212 l-150 -121 120 -5 c143 -6 180 -20
180 -65 0 -25 -5 -32 -35 -42 -19 -7 -73 -12 -118 -12 -46 -1 -129 -10 -184
-21 -101 -21 -129 -20 -160 7 -13 12 -24 13 -50 5 -18 -6 -82 -13 -143 -16
-60 -3 -137 -13 -170 -21 -33 -8 -72 -14 -87 -15 -34 0 -85 44 -93 82 -9 37
31 78 221 229 174 138 176 143 28 114 -99 -19 -120 -13 -130 42 -13 71 5 78
226 89 125 6 150 4 178 -10 40 -21 66 -59 57 -85 -3 -12 -83 -83 -177 -158
l-171 -138 119 -6 c65 -4 127 -10 136 -14 12 -5 28 4 53 29 20 20 101 88 180
150 78 63 146 120 150 127 6 9 -5 10 -46 5 -158 -20 -165 -20 -183 5 -20 30
-21 73 0 90 18 15 267 39 329 33 22 -3 56 -13 75 -22z m-1056 -23 c32 -25 33
-53 6 -158 -11 -42 -29 -134 -40 -205 -27 -165 -30 -172 -75 -180 -53 -10
-100 9 -116 46 -30 73 55 433 117 495 29 29 73 30 108 2z m-171 -688 c143 -50
246 -139 286 -246 29 -74 38 -207 22 -288 -30 -143 -146 -294 -336 -435 -55
-41 -101 -78 -103 -82 -7 -19 179 -231 375 -428 231 -232 249 -259 223 -322
-16 -38 -82 -96 -126 -110 -49 -16 -125 9 -221 72 -94 63 -244 210 -297 293
-146 226 -212 305 -255 305 -29 0 -38 -39 -66 -306 -45 -428 -50 -441 -187
-432 -80 6 -148 42 -185 97 -32 47 -30 105 12 489 19 174 42 405 51 512 9 107
26 267 39 355 22 158 22 160 3 181 -45 50 -35 147 22 204 65 65 167 107 366
151 117 25 291 21 377 -10z m951 0 c67 -58 95 -141 58 -174 -38 -35 -290 -137
-338 -137 -14 0 -27 6 -30 14 -8 21 36 101 113 201 91 120 141 145 197 96z
m507 -333 c88 -44 172 -111 210 -168 75 -112 77 -355 4 -605 -37 -128 -88
-218 -165 -296 -80 -81 -135 -103 -255 -103 -96 0 -151 21 -220 85 -114 105
-170 298 -146 499 23 186 122 423 226 537 73 81 101 94 196 91 63 -3 87 -9
150 -40z m-711 -83 c18 -18 37 -51 46 -81 13 -47 13 -64 0 -166 -30 -215 -45
-374 -61 -607 -15 -241 -25 -300 -50 -321 -10 -8 -39 -11 -85 -8 -84 4 -115
24 -149 93 -23 44 -25 59 -23 168 4 298 69 744 128 886 27 64 42 74 106 69 47
-3 64 -10 88 -33z"/>
<path d="M2244 5443 c-17 -3 -24 -18 -39 -81 -22 -98 -33 -282 -16 -282 50 0
159 113 208 215 57 119 41 156 -68 154 -35 -1 -73 -4 -85 -6z"/>
<path d="M2310 4195 c-52 -14 -100 -32 -106 -40 -11 -15 -41 -561 -31 -571 8
-9 85 47 141 102 72 71 133 157 181 256 48 97 63 170 46 221 -21 63 -79 71
-231 32z"/>
<path d="M3911 3924 c-78 -66 -140 -233 -148 -400 -7 -136 1 -196 31 -230 21
-25 23 -26 52 -11 83 43 164 320 151 518 -5 83 -26 149 -46 149 -5 0 -23 -12
-40 -26z"/>
</g>
</svg>
